<?xml version="1.0" standalone="no"?>
<!DOCTYPE svg PUBLIC "-//W3C//DTD SVG 20010904//EN"
 "http://www.w3.org/TR/2001/REC-SVG-20010904/DTD/svg10.dtd">
<svg version="1.0" xmlns="http://www.w3.org/2000/svg"
 width="2063.000000pt" height="955.000000pt" viewBox="0 0 2063.000000 955.000000"
 preserveAspectRatio="xMidYMid meet">

<g transform="translate(0.000000,955.000000) scale(0.100000,-0.100000)"
fill="#000000" stroke="none">
<path d="M1947 9473 c-150 -247 -228 -582 -206 -884 19 -275 102 -508 271
-761 65 -98 113 -154 237 -278 304 -304 543 -477 984 -713 l138 -74 92 19
c128 26 413 35 532 17 l90 -14 -165 -6 c-91 -3 -196 -12 -235 -18 -85 -14
-185 -41 -185 -50 0 -3 46 -31 102 -61 56 -30 136 -77 177 -104 l75 -48 75 15
c105 22 168 26 226 18 l50 -7 -50 -7 c-96 -13 -168 -29 -205 -43 l-36 -15 44
-46 c59 -62 103 -157 110 -239 l5 -64 107 0 c132 0 234 -24 337 -80 134 -72
251 -174 343 -298 27 -37 58 -78 68 -92 23 -29 42 -182 42 -331 0 -87 1 -90
67 -239 36 -83 68 -148 70 -146 12 11 -40 613 -63 736 -55 288 -206 653 -361
869 -76 105 -261 297 -398 413 -176 147 -586 432 -860 596 -676 404 -1083 810
-1284 1282 -80 189 -140 444 -142 605 -1 112 -9 119 -52 48z"/>
<path d="M2065 9368 c27 -270 208 -682 419 -951 121 -155 360 -365 654 -576
122 -87 243 -162 557 -349 593 -351 988 -688 1190 -1013 77 -123 175 -319 221
-441 21 -54 40 -96 42 -93 3 2 12 27 22 54 52 153 221 326 432 440 37 20 68
39 68 43 0 4 -26 17 -57 29 -83 33 -268 33 -362 0 -35 -12 -68 -20 -73 -19
-23 8 118 119 203 160 49 24 88 45 89 48 0 10 -131 214 -181 282 l-51 68 -36
-16 c-59 -24 -165 -89 -226 -139 -31 -25 -56 -42 -56 -38 0 18 139 144 208
188 l73 46 -69 77 c-241 267 -579 552 -889 748 -155 99 -453 262 -851 468
-427 220 -587 319 -822 506 -194 155 -304 273 -431 462 -33 48 -64 88 -70 88
-8 0 -9 -23 -4 -72z"/>
<path d="M2064 6934 c791 -202 1204 -342 1214 -411 10 -70 -154 -102 -763
-148 -406 -31 -591 -78 -706 -182 -81 -73 -95 -155 -45 -258 160 -325 1121
-747 2120 -931 409 -75 1098 -156 1095 -128 0 5 -31 56 -67 114 l-67 105 -220
7 c-769 23 -1524 197 -2120 488 -198 97 -328 182 -421 274 -76 75 -99 111
-108 166 -22 122 210 223 584 255 222 19 399 48 622 101 167 41 211 63 216
111 3 27 -3 37 -46 71 -179 141 -639 279 -1361 407 -107 19 -199 35 -205 34
-6 0 119 -34 278 -75z"/>
<path d="M6210 5954 c-71 -19 -204 -82 -277 -132 -32 -22 -89 -70 -128 -106
-78 -74 -76 -74 85 6 124 61 190 78 331 85 100 5 126 3 185 -15 123 -38 229
-122 316 -250 60 -89 147 -178 223 -228 l56 -37 -53 -22 c-132 -54 -225 -114
-342 -222 -290 -268 -742 -550 -1052 -656 -374 -129 -856 -161 -1279 -86 -180
33 -292 64 -665 189 -378 126 -550 194 -856 338 -200 95 -514 233 -694 307
-312 128 -715 241 -941 265 -147 15 -410 12 -546 -5 -196 -26 -426 -116 -527
-207 l-41 -37 76 24 c162 51 231 60 444 60 232 -1 387 -19 599 -71 476 -117
1031 -358 1606 -697 352 -207 603 -333 905 -452 323 -127 519 -185 780 -229
182 -30 488 -53 493 -37 2 6 27 11 57 11 76 0 303 44 436 84 358 109 669 295
929 557 92 93 147 159 268 324 181 247 404 440 679 586 81 43 99 59 67 59 -24
0 -127 54 -192 101 -31 23 -138 124 -237 224 -160 162 -188 186 -255 218 -41
20 -102 44 -135 52 -75 19 -242 19 -315 -1z"/>
<path d="M6228 5564 c-37 -20 -58 -63 -58 -120 0 -41 5 -51 40 -86 39 -39 42
-40 92 -36 44 5 57 11 85 42 28 31 33 43 33 87 0 46 -4 55 -39 90 -33 34 -45
39 -82 39 -24 -1 -56 -7 -71 -16z"/>
<path d="M16222 3663 c-12 -65 -22 -121 -22 -125 0 -5 37 -8 83 -8 112 0 206
-15 236 -38 65 -47 81 -174 42 -328 -41 -162 -500 -2213 -515 -2299 -20 -121
-36 -281 -36 -370 0 -186 95 -331 273 -415 103 -49 206 -70 344 -70 192 0 375
42 513 117 83 45 207 133 254 182 l36 37 -55 73 c-30 41 -57 76 -59 79 -3 2
-27 -8 -53 -23 -122 -69 -261 -97 -333 -69 -51 20 -96 72 -111 126 -18 67 -5
243 30 408 17 80 170 746 341 1480 170 734 310 1340 310 1347 0 10 -130 13
-628 13 l-628 0 -22 -117z"/>
<path d="M8449 3585 c-195 -27 -378 -80 -519 -150 -384 -193 -580 -533 -540
-936 43 -439 268 -700 872 -1012 230 -119 322 -180 424 -282 108 -107 139
-164 161 -296 21 -120 8 -213 -42 -315 -64 -130 -203 -231 -372 -271 -95 -22
-302 -24 -383 -4 -30 7 -93 31 -140 53 -157 75 -286 237 -340 428 -26 95 -50
247 -50 324 l0 59 -102 -6 c-203 -12 -352 -69 -459 -177 -58 -57 -70 -75 -88
-134 -81 -263 63 -544 352 -684 210 -103 456 -157 772 -171 605 -26 1052 102
1327 380 259 264 340 709 193 1060 -63 149 -203 311 -388 450 -98 73 -141 98
-437 254 -113 59 -245 135 -295 169 -205 140 -285 273 -285 471 1 146 39 242
135 341 96 98 235 156 408 170 159 13 272 -29 382 -140 110 -110 153 -216 177
-428 l12 -108 56 0 c139 0 328 38 418 84 175 90 256 302 181 475 -94 217 -372
351 -831 401 -131 14 -481 11 -599 -5z"/>
<path d="M11744 2730 c-676 -60 -1233 -471 -1488 -1097 -88 -215 -126 -403
-127 -621 0 -298 86 -511 278 -692 218 -207 503 -302 898 -302 287 0 486 42
695 144 106 52 136 73 195 133 43 42 82 93 99 128 48 97 46 233 -4 315 l-20
32 -81 -85 c-45 -47 -118 -110 -163 -140 -94 -64 -243 -127 -350 -150 -110
-22 -297 -20 -377 5 -70 21 -168 76 -212 118 -49 47 -100 133 -130 222 -25 72
-31 105 -35 211 -2 70 -1 148 2 173 l7 46 194 0 c228 0 372 16 572 65 387 94
655 251 835 489 118 157 163 292 156 471 -5 119 -27 187 -88 274 -52 74 -111
121 -216 172 -168 81 -387 112 -640 89z m15 -296 c67 -20 121 -73 152 -150 30
-76 32 -228 5 -319 -80 -271 -347 -461 -721 -515 -108 -15 -225 -13 -225 4 0
31 60 248 95 341 41 111 111 250 171 341 65 98 198 230 268 264 99 49 173 59
255 34z"/>
<path d="M15080 2715 c-173 -27 -326 -103 -445 -221 -102 -100 -173 -201 -279
-396 -26 -49 -54 -88 -62 -88 -10 0 -13 7 -9 23 2 12 27 153 55 312 28 160 53
300 55 313 l5 22 -578 0 -579 0 -17 -107 c-10 -60 -19 -115 -22 -124 -4 -15 9
-17 108 -21 96 -3 121 -7 163 -28 66 -33 89 -73 87 -153 -3 -86 -8 -112 -252
-1196 -121 -539 -220 -985 -220 -990 0 -8 122 -11 389 -11 362 0 390 1 395 18
3 9 53 222 112 472 156 666 213 844 379 1178 152 307 312 510 459 582 57 28
73 32 124 28 78 -5 130 -34 169 -92 47 -69 64 -135 70 -268 l6 -118 72 0 c133
0 314 63 397 138 109 99 155 230 138 398 -10 95 -34 150 -93 211 -105 110
-367 158 -627 118z"/>
<path d="M19320 2720 c-674 -74 -1208 -502 -1420 -1139 -51 -153 -78 -288 -90
-456 -29 -414 101 -744 365 -922 134 -90 269 -140 470 -175 161 -27 464 -22
627 11 363 73 677 251 904 511 138 158 289 420 348 605 74 228 108 489 88 673
-55 500 -335 794 -837 878 -114 19 -344 26 -455 14z m272 -343 c108 -53 173
-138 209 -273 17 -64 21 -109 21 -239 2 -648 -267 -1293 -609 -1462 -76 -38
-78 -38 -197 -38 -119 0 -122 1 -184 34 -102 55 -162 136 -199 266 -21 71 -28
330 -14 466 25 235 77 442 167 668 90 223 195 382 323 487 115 96 196 124 337
121 75 -2 100 -7 146 -30z"/>
</g>
</svg>
